HIERARCHY
ROOT Hips
{
 OFFSET 0.000000 0.000000 0.000000
 CHANNELS 6 Xposition Yposition Zposition Yrotation Xrotation Zrotation
 JOINT Chest
 {
  OFFSET 0.000000 9.585900 0.002600
  CHANNELS 3 Yrotation Xrotation Zrotation
  JOINT Chest2
  {
   OFFSET 0.000000 9.601200 -0.005300
   CHANNELS 3 Yrotation Xrotation Zrotation
   JOINT Chest3
   {
    OFFSET 0.000000 9.561800 0.000000
    CHANNELS 3 Yrotation Xrotation Zrotation
    JOINT Chest4
    {
     OFFSET 0.000000 9.552100 0.000000
     CHANNELS 3 Yrotation Xrotation Zrotation
     JOINT Neck
     {
      OFFSET 0.000000 14.453000 0.000000
      CHANNELS 3 Yrotation Xrotation Zrotation
      JOINT Head
      {
       OFFSET 0.000000 8.936500 -0.011300
       CHANNELS 3 Yrotation Xrotation Zrotation
       End Site
       {
        OFFSET 0.000000 17.073600 -0.006000
       }
      }
     }
     JOINT RightCollar
     {
      OFFSET -2.921100 9.558500 0.000000
      CHANNELS 3 Yrotation Xrotation Zrotation
      JOINT RightShoulder
      {
       OFFSET -13.519700 0.000000 0.000000
       CHANNELS 3 Yrotation Xrotation Zrotation
       JOINT RightElbow
       {
        OFFSET 0.000000 -29.696600 0.000000
        CHANNELS 3 Yrotation Xrotation Zrotation
        JOINT RightWrist
        {
         OFFSET 0.000000 -24.004700 0.000000
         CHANNELS 3 Yrotation Xrotation Zrotation
         End Site
         {
          OFFSET 0.000000 -17.728500 0.000000
         }
        }
       }
      }
     }
     JOINT LeftCollar
     {
      OFFSET 2.921100 9.558500 0.000000
      CHANNELS 3 Yrotation Xrotation Zrotation
      JOINT LeftShoulder
      {
       OFFSET 13.519700 0.000000 0.000000
       CHANNELS 3 Yrotation Xrotation Zrotation
       JOINT LeftElbow
       {
        OFFSET 0.000000 -29.696600 0.000000
        CHANNELS 3 Yrotation Xrotation Zrotation
        JOINT LeftWrist
        {
         OFFSET 0.000000 -24.004700 0.000000
         CHANNELS 3 Yrotation Xrotation Zrotation
         End Site
         {
          OFFSET 0.000000 -17.728500 0.000000
         }
        }
       }
      }
     }
    }
   }
  }
 }
 JOINT RightHip
 {
  OFFSET -7.771700 -0.012900 -0.001300
  CHANNELS 3 Yrotation Xrotation Zrotation
  JOINT RightKnee
  {
   OFFSET 0.000000 -40.869800 0.001200
   CHANNELS 3 Yrotation Xrotation Zrotation
   JOINT RightAnkle
   {
    OFFSET 0.000000 -39.717900 0.002100
    CHANNELS 3 Yrotation Xrotation Zrotation
    JOINT RightToe
    {
     OFFSET 0.000000 -4.965400 11.033500
     CHANNELS 3 Yrotation Xrotation Zrotation
     End Site
     {
      OFFSET 0.000000 -1.423100 5.872300
     }
    }
   }
  }
 }
 JOINT LeftHip
 {
  OFFSET 7.771700 -0.012900 -0.001300
  CHANNELS 3 Yrotation Xrotation Zrotation
  JOINT LeftKnee
  {
   OFFSET 0.000000 -40.869800 0.001200
   CHANNELS 3 Yrotation Xrotation Zrotation
   JOINT LeftAnkle
   {
    OFFSET 0.000000 -39.717900 0.002100
    CHANNELS 3 Yrotation Xrotation Zrotation
    JOINT LeftToe
    {
     OFFSET 0.000000 -4.965400 11.033500
     CHANNELS 3 Yrotation Xrotation Zrotation
     End Site
     {
      OFFSET 0.000000 -1.423100 5.872300
     }
    }
   }
  }
 }
}
MOTION
Frames: 11
Frame Time: 0.008333
0.000000 85.388000 0.000000 0.000000 -5.767877 0.000000 0.000000 11.653817 0.000000 0.000000 -5.885947 0.000000 0.000000 -0.000000 0.000000 0.000000 -0.000000 0.000000 0.000000 12.528835 0.000000 0.000000 0.711642 0.000000 0.000000 -0.000000 0.000000 0.000000 0.000000 -90.000000 0.000000 -2.309062 0.000000 0.000000 2.309062 0.000000 0.000000 -0.000000 0.000000 0.000000 -0.000000 90.000000 0.000000 -2.309062 0.000000 0.000000 2.309062 0.000000 0.000000 8.520406 0.000000 0.000000 1.905762 0.000000 -0.000000 -4.658285 0.000000 0.000000 -0.000000 0.000000 0.000000 8.520406 0.000000 0.000000 1.905762 0.000000 -0.000000 -4.658285 0.000000 0.000000 -0.000000 0.000000
-62.025170 62.003097 15.009430 174.264443 -50.124136 -0.671849 5.176570 26.730378 2.125514 0.776079 4.637351 0.210472 1.239504 7.340585 0.363299 3.978941 21.854374 1.606749 -1.052274 13.600510 -5.036581 0.058372 -10.427552 -9.123083 6.086144 7.387037 6.388411 -19.258123 -29.208898 -5.271306 -80.041949 -19.043237 99.750976 -22.835689 -17.382481 -13.854925 -11.482568 7.490185 -0.587397 22.057336 -26.226688 4.802751 96.926943 -41.628550 -102.255940 36.459983 -22.847243 18.073758 1.611127 -17.069724 -2.112996 -8.007205 63.822083 -11.263943 1.013041 -7.189978 8.007935 -0.029476 -0.190581 -0.005504 -5.062878 -14.368403 4.677292 29.214884 74.581652 31.774204 1.802277 -9.437892 -6.766514 0.098748 0.192611 0.037177
-62.025182 62.002320 15.010961 174.270486 -50.108353 -0.678660 5.189119 26.770512 2.117276 0.770210 4.612223 0.217516 1.249394 7.376213 0.350807 3.978474 21.823110 1.610436 -0.957326 13.608394 -5.049197 0.179803 -10.430292 -9.153806 6.082331 7.371380 6.397210 -19.456767 -29.183787 -5.313497 -80.282161 -19.104123 99.944869 -22.847669 -17.391686 -13.889163 -11.439916 7.501424 -0.547386 22.337480 -26.238170 4.770044 97.203809 -41.691523 -102.509733 36.452968 -22.857313 18.119668 1.608339 -17.085395 -2.110532 -8.008378 63.820967 -11.265072 1.010463 -7.190771 8.006779 -0.031280 -0.184488 -0.007096 -5.070688 -14.384485 4.675566 29.227468 74.581760 31.793184 1.808318 -9.443293 -6.773472 0.097331 0.196978 0.037538
-62.025573 62.001859 15.012428 174.276114 -50.093776 -0.683433 5.189557 26.769076 2.114530 0.775271 4.628713 0.211759 1.246048 7.362374 0.354960 3.982156 21.843794 1.600494 -0.885861 13.610583 -5.054697 0.316515 -10.420871 -9.192173 6.080310 7.354142 6.405138 -19.643283 -29.150711 -5.355967 -80.518684 -19.158831 100.141296 -22.861400 -17.398786 -13.921346 -11.399650 7.507157 -0.511679 22.606816 -26.241329 4.733940 97.471839 -41.751519 -102.768497 36.448457 -22.855845 18.161125 1.605215 -17.099706 -2.109691 -8.008165 63.819713 -11.265941 1.004409 -7.192648 8.004987 -0.028642 -0.180276 -0.004586 -5.075642 -14.399031 4.674794 29.231219 74.580555 31.803836 1.807739 -9.447895 -6.783011 0.099713 0.198082 0.042563
-62.025061 62.001419 15.014212 174.270641 -50.078602 -0.685859 5.199593 26.765946 2.118588 0.778988 4.643760 0.207184 1.244023 7.350018 0.358018 3.987294 21.865935 1.591539 -0.818841 13.614966 -5.059210 0.444354 -10.407817 -9.226888 6.085049 7.395529 6.400715 -19.841727 -29.165757 -5.359995 -80.745706 -19.202615 100.340990 -22.877494 -17.406762 -13.949212 -11.365762 7.511065 -0.479826 22.859872 -26.240577 4.694997 97.736206 -41.803516 -103.030665 36.448600 -22.843402 18.195330 1.605116 -17.115519 -2.100993 -8.010675 63.815070 -11.272562 1.004865 -7.188804 8.007125 -0.029869 -0.179132 -0.005434 -5.075940 -14.413443 4.676616 29.249947 74.582148 31.832794 1.811916 -9.456169 -6.793019 0.102186 0.201497 0.042868
-62.026834 62.000587 15.016252 174.267214 -50.060152 -0.677021 5.203203 26.772140 2.107782 0.779987 4.647005 0.205820 1.245512 7.354740 0.356043 3.994890 21.870580 1.584126 -0.773186 13.610839 -5.056914 0.578767 -10.382727 -9.267242 6.079965 7.375356 6.410701 -20.019946 -29.124156 -5.397732 -80.958144 -19.232139 100.545279 -22.895563 -17.415246 -13.972840 -11.343006 7.514880 -0.452875 23.096504 -26.238951 4.655535 97.998020 -41.846748 -103.294868 36.453131 -22.823789 18.226942 1.608469 -17.133942 -2.102265 -8.012555 63.810288 -11.287008 1.001323 -7.188509 8.015766 -0.032662 -0.175393 -0.006388 -5.073267 -14.429410 4.659690 29.277005 74.565410 31.873891 1.813294 -9.452650 -6.804434 0.103353 0.204781 0.042271
-62.028578 62.000911 15.017456 174.267230 -50.050716 -0.670967 5.218139 26.805264 2.097693 0.773174 4.632582 0.208486 1.247998 7.359537 0.354074 4.003885 21.870045 1.580439 -0.764345 13.588599 -5.043699 0.734181 -10.336957 -9.323809 6.071794 7.357727 6.421524 -20.197722 -29.079696 -5.427207 -81.156135 -19.248035 100.755562 -22.916717 -17.417563 -13.991206 -11.330049 7.520309 -0.432227 23.314888 -26.236507 4.615329 98.256692 -41.877317 -103.559362 36.456126 -22.802518 18.255979 1.610323 -17.143170 -2.108135 -8.003587 63.810821 -11.283194 0.995918 -7.192857 8.019538 -0.031195 -0.172118 -0.007635 -5.073171 -14.437992 4.650332 29.284615 74.558668 31.884891 1.816892 -9.448518 -6.807348 0.102043 0.203908 0.041704
-62.030040 62.001563 15.018487 174.264299 -50.044140 -0.664486 5.222409 26.807162 2.092620 0.780210 4.646374 0.204842 1.261769 7.386180 0.347296 4.000425 21.848805 1.583680 -0.670386 13.629206 -5.067053 0.770554 -10.342798 -9.323338 6.070706 7.360753 6.426062 -20.382388 -29.047822 -5.434726 -81.341796 -19.251998 100.971882 -22.938040 -17.415490 -14.002247 -11.306935 7.547571 -0.414849 23.499956 -26.251703 4.564457 98.510212 -41.893921 -103.818308 36.459548 -22.787422 18.276283 1.617216 -17.150891 -2.112078 -8.004733 63.811747 -11.284659 0.989838 -7.192508 8.020948 -0.025719 -0.174994 -0.007716 -5.073318 -14.443141 4.643211 29.290594 74.553418 31.891837 1.821817 -9.445372 -6.809810 0.098058 0.202960 0.041125
-62.031542 62.002456 15.019315 174.262814 -50.040004 -0.658687 5.224867 26.810338 2.087328 0.792484 4.668389 0.201517 1.258031 7.376833 0.348995 4.001987 21.847966 1.581447 -0.614504 13.654657 -5.082722 0.830964 -10.328524 -9.343236 6.080950 7.404452 6.423456 -20.575181 -29.045053 -5.414530 -81.511583 -19.246992 101.189371 -22.957741 -17.412856 -14.003281 -11.304569 7.546692 -0.401969 23.680322 -26.232761 4.520978 98.759065 -41.897684 -104.071961 36.468302 -22.779769 18.289502 1.619165 -17.155006 -2.117009 -8.009840 63.810534 -11.290635 0.989263 -7.193985 8.019446 -0.022887 -0.172968 -0.005046 -5.074190 -14.446122 4.635611 29.295845 74.548774 31.897606 1.826632 -9.441803 -6.811096 0.092865 0.201269 0.039793
-62.034102 62.002259 15.020931 174.264687 -50.027869 -0.649141 5.235953 26.822482 2.081839 0.787505 4.661247 0.200569 1.256853 7.375668 0.347957 3.997506 21.838225 1.582314 -0.576384 13.679352 -5.099191 0.896896 -10.303896 -9.370845 6.081067 7.406542 6.424873 -20.741092 -28.996282 -5.414710 -81.662280 -19.238467 101.404989 -22.975452 -17.408778 -13.995990 -11.271305 7.600076 -0.402646 23.824253 -26.255843 4.461279 99.003623 -41.886744 -104.327640 36.478628 -22.775203 18.304629 1.619187 -17.167198 -2.127737 -8.013585 63.810265 -11.297218 0.980678 -7.201306 8.016768 -0.018879 -0.167150 -0.001645 -5.073971 -14.458712 4.623778 29.294868 74.545826 31.897567 1.826770 -9.440788 -6.812342 0.093349 0.201808 0.040394
-62.035657 62.002836 15.021945 174.262519 -50.022751 -0.641225 5.241740 26.823575 2.078322 0.788033 4.662006 0.199526 1.257736 7.376874 0.346390 4.003321 21.851656 1.578755 -0.558854 13.677482 -5.100972 0.918604 -10.296176 -9.378010 6.081654 7.412336 6.432058 -20.918335 -28.969811 -5.388276 -81.795612 -19.229074 101.619807 -22.987727 -17.402270 -13.984499 -11.256201 7.604660 -0.389680 23.966790 -26.246934 4.404824 99.237982 -41.862564 -104.584320 36.485510 -22.773427 18.318883 1.620439 -17.172004 -2.132924 -8.021773 63.805763 -11.307643 0.979317 -7.199138 8.015641 -0.013143 -0.172193 -0.000893 -5.073406 -14.463013 4.610588 29.314917 74.540180 31.919530 1.836495 -9.438128 -6.811727 0.084961 0.200962 0.035545
